<svg width="86" height="86" viewBox="0 0 86 86" fill="none" xmlns="http://www.w3.org/2000/svg">
<path d="M49.2984 24.9317C49.2984 24.9317 52.4388 21.8153 61.7002 22.6923C61.7002 22.6923 57.0688 17.3098 46.9278 20.9396C45.1791 13.1779 36.4158 12.0938 36.4158 12.0938C36.4158 12.0938 41.173 16.6819 41.173 22.8614C32.9144 15.5204 23.147 23.3189 23.147 23.3189C33.912 21.1913 36.6982 25.4072 36.6982 25.4072L41.6907 24.4562L49.2984 24.9317Z" fill="white"/>
<path d="M45.6506 32.5438C49.67 33.1328 53.3179 35.2201 55.8622 38.387C58.4064 41.5538 59.6588 45.5658 59.3679 49.6177C59.0771 53.6695 57.2645 57.4614 54.2939 60.2324C51.3234 63.0034 47.4147 64.5483 43.3525 64.5571C40.1132 64.5572 36.9493 63.5794 34.275 61.7516C31.6006 59.9239 29.5403 57.3314 28.3637 54.3134C27.1871 51.2953 26.9489 47.9924 27.6805 44.8368C28.4121 41.6813 30.0792 38.82 32.4638 36.6276L29.2119 33.3757C25.6269 36.7352 23.3549 41.2611 22.8026 46.1431C22.2503 51.025 23.4539 55.9441 26.1978 60.0196C28.9418 64.095 33.0468 67.0606 37.7779 68.3854C42.509 69.7101 47.5572 69.3075 52.0185 67.2495C56.4798 65.1916 60.0629 61.6128 62.1261 57.1539C64.1893 52.6951 64.598 47.6474 63.2788 42.9147C61.9597 38.182 58.9989 34.0734 54.9268 31.3247C50.8546 28.5759 45.9369 27.3665 41.0543 27.913V39.4727C41.0543 40.742 42.0832 41.7709 43.3525 41.7709V41.7709C44.6217 41.7709 45.6506 40.742 45.6506 39.4727V32.5484V32.5438Z" fill="white"/>
<path d="M33.4865 40.9022C33.0556 41.3331 32.8136 41.9176 32.8136 42.527C32.8136 43.1364 33.0556 43.7208 33.4865 44.1518L39.988 50.6532C40.4214 51.0719 41.0019 51.3035 41.6045 51.2983C42.2071 51.293 42.7835 51.0513 43.2096 50.6253C43.6357 50.1992 43.8773 49.6227 43.8826 49.0202C43.8878 48.4176 43.6562 47.8371 43.2375 47.4037L36.7338 40.9022C36.3028 40.4713 35.7184 40.2293 35.109 40.2293C34.4996 40.2293 33.9174 40.4713 33.4865 40.9022Z" fill="white"/>
<path d="M43.1171 73.9062C39.6311 73.9062 36.355 73.2443 33.289 71.9205C30.2229 70.5966 27.5559 68.8015 25.2878 66.5351C23.0198 64.2671 21.2247 61.6 19.9025 58.534C18.5803 55.4679 17.9184 52.1918 17.9167 48.7058C17.9167 45.2197 18.5786 41.9436 19.9025 38.8776C21.2263 35.8115 23.0214 33.1445 25.2878 30.8764C27.5559 28.6084 30.2229 26.8133 33.289 25.4911C36.355 24.1689 39.6311 23.507 43.1171 23.5053C46.6032 23.5053 49.8793 24.1672 52.9453 25.4911C56.0114 26.815 58.6784 28.6101 60.9465 30.8764C63.2145 33.1445 65.0105 35.8115 66.3343 38.8776C67.6582 41.9436 68.3193 45.2197 68.3176 48.7058C68.3176 52.1918 67.6557 55.4679 66.3318 58.534C65.008 61.6 63.2129 64.2671 60.9465 66.5351C58.6784 68.8032 56.0114 70.5991 52.9453 71.923C49.8793 73.2468 46.6032 73.9079 43.1171 73.9062ZM43.1171 68.8662C48.7453 68.8662 53.5123 66.9131 57.4184 63.007C61.3245 59.101 63.2775 54.3339 63.2775 48.7058C63.2775 43.0777 61.3245 38.3106 57.4184 34.4045C53.5123 30.4984 48.7453 28.5454 43.1171 28.5454C37.489 28.5454 32.722 30.4984 28.8159 34.4045C24.9098 38.3106 22.9568 43.0777 22.9568 48.7058C22.9568 54.3339 24.9098 59.101 28.8159 63.007C32.722 66.9131 37.489 68.8662 43.1171 68.8662Z" fill="white"/>
</svg>
