<svg width="42" height="42" viewBox="0 0 42 42" fill="none" xmlns="http://www.w3.org/2000/svg">
<path opacity="0.5" fill-rule="evenodd" clip-rule="evenodd" d="M11.8294 15.734C11.6135 15.6453 11.3394 15.6453 10.7916 15.6453C10.2439 15.6453 9.96969 15.6453 9.75386 15.734C9.46654 15.8519 9.23783 16.0792 9.11802 16.3657C9.06319 16.4958 9.04219 16.6481 9.03344 16.8692C9.02955 17.0293 8.98487 17.1859 8.90362 17.324C8.82237 17.4621 8.70723 17.5772 8.56911 17.6584C8.42837 17.7366 8.27017 17.7781 8.10916 17.7789C7.94815 17.7797 7.78954 17.7399 7.64802 17.6631C7.45086 17.5592 7.30794 17.5021 7.16677 17.4834C6.85793 17.4429 6.54557 17.5259 6.29761 17.7144C6.11211 17.8556 5.97502 18.0912 5.70144 18.562C5.42727 19.0327 5.29077 19.2678 5.25986 19.4982C5.21902 19.8051 5.30302 20.1154 5.49319 20.361C5.57952 20.473 5.70144 20.5669 5.88986 20.6847C6.16811 20.858 6.34661 21.1532 6.34661 21.4787C6.34661 21.8042 6.16811 22.0993 5.89044 22.272C5.70144 22.3904 5.57952 22.4843 5.49261 22.5963C5.39874 22.7176 5.32984 22.8563 5.28989 23.0044C5.24994 23.1525 5.23973 23.307 5.25986 23.4591C5.29077 23.6889 5.42727 23.9246 5.70144 24.3953C5.97561 24.8661 6.11211 25.1012 6.29761 25.2429C6.54494 25.4313 6.85761 25.5142 7.16677 25.4739C7.30794 25.4552 7.45086 25.3981 7.64802 25.2942C7.78961 25.2173 7.94833 25.1774 8.10946 25.1783C8.27058 25.1791 8.42889 25.2206 8.56969 25.2989C8.85319 25.4622 9.02119 25.7627 9.03344 26.0882C9.04219 26.3098 9.06319 26.4615 9.11802 26.5916C9.23702 26.8774 9.46569 27.1049 9.75386 27.2233C9.96969 27.312 10.2439 27.312 10.7916 27.312C11.3394 27.312 11.6135 27.312 11.8294 27.2233C12.1167 27.1054 12.3454 26.8781 12.4652 26.5916C12.52 26.4615 12.541 26.3098 12.5498 26.0882C12.5614 25.7627 12.73 25.4617 13.0141 25.2989C13.1548 25.2207 13.313 25.1792 13.474 25.1784C13.6351 25.1776 13.7937 25.2174 13.9352 25.2942C14.1324 25.3981 14.2753 25.4552 14.4164 25.4739C14.7256 25.5147 15.0383 25.4313 15.2856 25.2429C15.4711 25.1017 15.6082 24.8661 15.8818 24.3953C16.1559 23.9246 16.2924 23.6895 16.3234 23.4591C16.3434 23.307 16.3331 23.1524 16.293 23.0043C16.253 22.8563 16.184 22.7176 16.09 22.5963C16.0037 22.4843 15.8818 22.3904 15.6934 22.2726C15.4151 22.0993 15.2366 21.8042 15.2366 21.4787C15.2366 21.1532 15.4151 20.858 15.6928 20.6853C15.8818 20.5669 16.0037 20.473 16.0906 20.361C16.1845 20.2397 16.2534 20.101 16.2933 19.9529C16.3333 19.8048 16.3435 19.6503 16.3234 19.4982C16.2924 19.2684 16.1559 19.0327 15.8818 18.562C15.6076 18.0912 15.4711 17.8562 15.2856 17.7144C15.0376 17.5259 14.7253 17.4429 14.4164 17.4834C14.2753 17.5021 14.1324 17.5592 13.9352 17.6631C13.7936 17.74 13.6349 17.7799 13.4738 17.7791C13.3126 17.7782 13.1543 17.7367 13.0135 17.6584C12.8755 17.5771 12.7605 17.462 12.6793 17.3239C12.5982 17.1858 12.5536 17.0293 12.5498 16.8692C12.541 16.6475 12.52 16.4958 12.4652 16.3657C12.4059 16.2238 12.3192 16.095 12.2101 15.9866C12.101 15.8782 11.9716 15.7924 11.8294 15.734Z" fill="white"/>
<path d="M12.555 21.4787C12.555 22.4453 11.7652 23.2287 10.7916 23.2287C9.81745 23.2287 9.0282 22.4453 9.0282 21.4787C9.0282 20.5121 9.81745 19.7287 10.7916 19.7287C11.7658 19.7287 12.555 20.5121 12.555 21.4787Z" fill="#3757FF"/>
<path d="M36 31.9874C36 32.9499 35.2195 33.7287 34.2587 33.7287H6.74125C6.27944 33.7287 5.83655 33.5452 5.51 33.2187C5.18345 32.8921 5 32.4492 5 31.9874C5 31.5256 5.18345 31.0827 5.51 30.7562C5.83655 30.4296 6.27944 30.2462 6.74125 30.2462H34.2587C35.2212 30.2462 36 31.0249 36 31.9874ZM36 21.4787C36 22.4412 35.2195 23.2199 34.2587 23.2199H21.2412C20.7794 23.2199 20.3365 23.0365 20.01 22.7099C19.6835 22.3834 19.5 21.9405 19.5 21.4787C19.5 21.0169 19.6835 20.574 20.01 20.2474C20.3365 19.9209 20.7794 19.7374 21.2412 19.7374H34.2587C35.2212 19.7374 36 20.5179 36 21.4787ZM34.2587 12.7112C34.7206 12.7112 35.1635 12.5277 35.49 12.2012C35.8165 11.8746 36 11.4317 36 10.9699C36 10.5081 35.8165 10.0652 35.49 9.73866C35.1635 9.41211 34.7206 9.22866 34.2587 9.22866L6.74125 9C6.51259 9 6.28616 9.04504 6.0749 9.13254C5.86364 9.22005 5.67169 9.34831 5.51 9.51C5.34831 9.67169 5.22005 9.86364 5.13254 10.0749C5.04504 10.2862 5 10.5126 5 10.7412C5 10.9699 5.04504 11.1963 5.13254 11.4076C5.22005 11.6189 5.34831 11.8108 5.51 11.9725C5.67169 12.1342 5.86364 12.2624 6.0749 12.35C6.28616 12.4375 6.51259 12.4825 6.74125 12.4825L34.2587 12.7112Z" fill="white"/>
</svg>
