<svg width="50" height="50" viewBox="0 0 50 50" fill="none" xmlns="http://www.w3.org/2000/svg">
<path d="M25 0C11.1895 0 0 11.1895 0 25C0 38.8105 11.1895 50 25 50C38.8105 50 50 38.8105 50 25C50 11.1895 38.8105 0 25 0ZM34.3236 31.5524L32.3075 34.0726C32.1752 34.238 32.0116 34.3757 31.826 34.4779C31.6405 34.5801 31.4366 34.6448 31.2261 34.6682C31.0156 34.6916 30.8025 34.6733 30.599 34.6143C30.3956 34.5554 30.2057 34.4569 30.0403 34.3246L23.2863 29.3125C22.8144 28.9347 22.4335 28.4556 22.1717 27.9106C21.91 27.3657 21.7741 26.7689 21.7742 26.1643V10.4839C21.7742 10.0561 21.9441 9.64585 22.2466 9.34338C22.5491 9.0409 22.9593 8.87097 23.3871 8.87097H26.6129C27.0407 8.87097 27.4509 9.0409 27.7534 9.34338C28.0559 9.64585 28.2258 10.0561 28.2258 10.4839V25L34.0726 29.2843C34.2381 29.4167 34.3758 29.5804 34.478 29.766C34.5802 29.9517 34.6448 30.1557 34.6681 30.3663C34.6914 30.577 34.673 30.7901 34.6139 30.9937C34.5548 31.1972 34.4561 31.387 34.3236 31.5524Z" fill="#3757FF"/>
</svg>
